HIERARCHY
ROOT Hips
{
	OFFSET 0.000000 0.000000 0.000000
	CHANNELS 6 Xposition Yposition Zposition Xrotation Yrotation Zrotation
	JOINT LeftUpLeg_virtual
	{
		OFFSET 0.000000 0.000000 0.000000
		CHANNELS 3 Xrotation Yrotation Zrotation
		JOINT LeftUpLeg
		{
			OFFSET 13.026900 -6.336304 -1.092800
			CHANNELS 3 Xrotation Yrotation Zrotation
			JOINT LeftLeg
			{
				OFFSET 0.524474 -46.096886 9.782700
				CHANNELS 3 Xrotation Yrotation Zrotation
				JOINT LeftFoot
				{
					OFFSET -0.524474 -53.427422 -12.948200
					CHANNELS 3 Xrotation Yrotation Zrotation
					JOINT LeftToeBase
					{
						OFFSET 0.192200 -14.009700 16.364100
						CHANNELS 3 Xrotation Yrotation Zrotation
						JOINT LeftToe_End
						{
							OFFSET -1.784700 -0.561700 9.474800
							CHANNELS 3 Xrotation Yrotation Zrotation
							End Site
							{
								OFFSET 0 0 0
							}
						}
					}
				}
			}
		}
	}
	JOINT RightUpLeg_virtual
	{
		OFFSET 0.000000 0.000000 0.000000
		CHANNELS 3 Xrotation Yrotation Zrotation
		JOINT RightUpLeg
		{
			OFFSET -12.883000 -6.336304 -1.092800
			CHANNELS 3 Xrotation Yrotation Zrotation
			JOINT RightLeg
			{
				OFFSET -0.524587 -46.096825 9.782800
				CHANNELS 3 Xrotation Yrotation Zrotation
				JOINT RightFoot
				{
					OFFSET 0.524587 -53.427383 -12.948300
					CHANNELS 3 Xrotation Yrotation Zrotation
					JOINT RightToeBase
					{
						OFFSET -0.192200 -14.009700 16.364100
						CHANNELS 3 Xrotation Yrotation Zrotation
						JOINT RightToe_End
						{
							OFFSET 1.784700 -0.561700 9.474800
							CHANNELS 3 Xrotation Yrotation Zrotation
							End Site
							{
								OFFSET 0 0 0
							}
						}
					}
				}
			}
		}
	}
	JOINT Spine_virtual
	{
		OFFSET 0.000000 0.000000 0.000000
		CHANNELS 3 Xrotation Yrotation Zrotation
		JOINT Spine
		{
			OFFSET 0.072000 7.257294 -0.789700
			CHANNELS 3 Xrotation Yrotation Zrotation
			JOINT Spine1
			{
				OFFSET 0.000000 12.508769 -0.658067
				CHANNELS 3 Xrotation Yrotation Zrotation
				JOINT Spine1_split
				{
					OFFSET 0.000000 12.508769 -0.658067
					CHANNELS 3 Xrotation Yrotation Zrotation
					JOINT Spine2
					{
						OFFSET 0.000000 12.508769 -0.658067
						CHANNELS 3 Xrotation Yrotation Zrotation
						JOINT Neck_virtual
						{
							OFFSET 0.000000 0.000000 0.000000
							CHANNELS 3 Xrotation Yrotation Zrotation
							JOINT Neck
							{
								OFFSET 0.000000 14.033295 7.520400
								CHANNELS 3 Xrotation Yrotation Zrotation
								JOINT Head
								{
									OFFSET 0.000000 8.198502 5.703100
									CHANNELS 3 Xrotation Yrotation Zrotation
									JOINT HeadTop_End
									{
										OFFSET 0.000000 17.760803 13.332701
										CHANNELS 3 Xrotation Yrotation Zrotation
										End Site
										{
											OFFSET 0 0 0
										}
									}
								}
							}
						}
						JOINT LeftShoulder_virtual
						{
							OFFSET 0.000000 0.000000 0.000000
							CHANNELS 3 Xrotation Yrotation Zrotation
							JOINT LeftShoulder
							{
								OFFSET 6.292450 5.785301 -0.669000
								CHANNELS 3 Xrotation Yrotation Zrotation
								JOINT LeftShoulder_split
								{
									OFFSET 6.292450 5.785301 -0.669000
									CHANNELS 3 Xrotation Yrotation Zrotation
									JOINT LeftArm
									{
										OFFSET 13.907140 -6.093903 1.965100
										CHANNELS 3 Xrotation Yrotation Zrotation
										JOINT LeftForeArm
										{
											OFFSET 34.140198 0.000000 0.000000
											CHANNELS 3 Xrotation Yrotation Zrotation
											JOINT LeftHand
											{
												OFFSET 40.960209 0.000000 0.000000
												CHANNELS 3 Xrotation Yrotation Zrotation
												End Site
												{
													OFFSET 0 0 0
												}
											}
										}
									}
								}
							}
						}
						JOINT RightShoulder_virtual
						{
							OFFSET 0.000000 0.000000 0.000000
							CHANNELS 3 Xrotation Yrotation Zrotation
							JOINT RightShoulder
							{
								OFFSET -6.292450 5.785301 -0.669000
								CHANNELS 3 Xrotation Yrotation Zrotation
								JOINT RightShoulder_split
								{
									OFFSET -6.292450 5.785301 -0.669000
									CHANNELS 3 Xrotation Yrotation Zrotation
									JOINT RightArm
									{
										OFFSET -13.907140 -6.093903 1.965100
										CHANNELS 3 Xrotation Yrotation Zrotation
										JOINT RightForeArm
										{
											OFFSET -34.140198 0.000000 0.000000
											CHANNELS 3 Xrotation Yrotation Zrotation
											JOINT RightHand
											{
												OFFSET -40.960209 0.000000 0.000000
												CHANNELS 3 Xrotation Yrotation Zrotation
												End Site
												{
													OFFSET 0 0 0
												}
											}
										}
									}
								}
							}
						}
					}
				}
			}
		}
	}
}
MOTION
Frames: 7
Frame Time: 0.03333333
-1.778008 109.005196 -1.899326 0.000000 0.000000 0.000000 -6.518820 -25.205310 1.948495 -15.524941 11.919833 10.913995 27.392071 9.541177 0.941428 -1.006548 18.527074 -12.629002 -1.173108 -0.028897 -0.244532 0.000000 0.000000 0.000000 -5.862876 -24.210591 2.182405 -14.038381 -33.638053 -16.193236 32.472546 6.666556 -5.742489 -14.431510 -19.321383 7.292853 -6.095578 0.432297 -0.456458 0.000000 0.000000 0.000000 -6.960484 -26.837347 1.083718 5.368350 -2.601138 -1.414851 1.358395 -2.777312 0.398995 0.809977 0.702892 0.056668 0.000000 0.000000 0.000000 1.040987 -2.409988 0.271718 2.002082 5.362675 -0.377960 0.064127 -19.020562 -3.557096 0.000000 0.000000 0.000000 1.473961 -2.562650 0.074352 -0.071767 -16.047601 -18.623462 -1.886892 -1.846575 -1.798547 16.182381 7.329424 -35.604475 171.066336 -82.376712 170.150900 0.000000 0.000000 0.000000 0.947011 -2.479755 0.302192 0.835959 15.209177 11.464358 2.764911 2.572518 0.163148 3.315281 28.071463 43.206049 -172.235678 83.635666 171.811564 0.000000 0.000000 0.000000 
-2.820478 109.103119 -1.633945 0.000000 0.000000 0.000000 -6.547435 -26.848922 1.618133 -15.344799 11.608005 11.441558 28.230401 10.082528 0.996648 -1.309589 19.380807 -11.989953 -1.302305 0.011803 -0.529210 0.000000 0.000000 0.000000 -5.957966 -25.754782 1.847804 -12.702144 -33.587756 -15.103326 31.264385 6.963853 -5.603923 -15.021420 -18.898456 7.028080 -5.990550 0.397715 -0.368088 0.000000 0.000000 0.000000 -7.059606 -28.222137 0.794571 5.371229 -2.508495 -1.255641 1.344051 -2.654725 0.374350 0.770347 0.732842 0.059950 0.000000 0.000000 0.000000 1.020815 -2.299857 0.238798 1.952960 5.393112 -0.341765 0.100381 -19.053702 -3.264366 0.000000 0.000000 0.000000 1.437687 -2.446231 0.059410 -0.081230 -16.067339 -18.527732 -1.855562 -1.843130 -1.911485 15.395209 7.019597 -35.771070 171.031639 -82.800881 170.109003 0.000000 0.000000 0.000000 0.922841 -2.371831 0.257037 0.804868 15.253887 11.392503 2.847974 2.580137 0.192339 3.810577 27.387047 42.461445 -173.168095 82.854081 172.736782 0.000000 0.000000 0.000000 
-3.724467 109.209785 -1.386280 0.000000 0.000000 0.000000 -6.626835 -28.556217 1.303510 -15.395103 11.339091 11.810092 29.127000 10.433362 0.990438 -1.680754 19.831572 -11.207040 -1.521012 0.073965 -0.818781 0.000000 0.000000 0.000000 -6.108579 -27.321204 1.528486 -11.337337 -33.351346 -14.102685 30.183255 7.022857 -5.449479 -15.571732 -18.424582 6.738438 -5.736205 0.345916 -0.252613 0.000000 0.000000 0.000000 -7.156231 -29.555875 0.536744 5.371897 -2.347111 -1.134849 1.314975 -2.514156 0.342046 0.732524 0.703470 0.047783 0.000000 0.000000 0.000000 1.019853 -2.166810 0.199849 1.908769 5.426518 -0.340403 0.081392 -18.926459 -3.026532 0.000000 0.000000 0.000000 1.393596 -2.307583 0.033893 -0.093554 -16.104415 -18.432184 -1.816050 -1.834690 -2.024854 14.627984 6.688120 -35.914504 171.162751 -83.201826 170.233518 0.000000 0.000000 0.000000 0.891245 -2.244049 0.209420 0.782666 15.324322 11.356865 2.870833 2.584532 0.193245 4.357041 26.553627 41.789208 -173.970874 82.027177 173.545094 0.000000 0.000000 0.000000 
-4.480319 109.347549 -1.156822 0.000000 0.000000 0.000000 -6.743380 -30.299771 1.013985 -15.755315 11.158536 11.990407 29.940766 10.489723 0.912701 -1.908955 19.658989 -10.436276 -1.827454 0.137147 -1.055452 0.000000 0.000000 0.000000 -6.271204 -28.889033 1.240154 -10.109154 -32.984022 -13.270386 29.263099 6.869750 -5.298453 -15.931778 -17.890248 6.537398 -5.487775 0.290295 -0.135177 0.000000 0.000000 0.000000 -7.241241 -30.856397 0.325973 5.379729 -2.122898 -1.054559 1.277675 -2.366680 0.305720 0.700605 0.620771 0.013344 0.000000 0.000000 0.000000 1.039102 -2.019333 0.158774 1.864423 5.461706 -0.363257 0.013785 -18.637961 -2.842226 0.000000 0.000000 0.000000 1.345639 -2.156746 0.000369 -0.104791 -16.142433 -18.345483 -1.759535 -1.803777 -2.126287 13.924425 6.348069 -36.033896 171.448007 -83.545938 170.514839 0.000000 0.000000 0.000000 0.857737 -2.105481 0.164070 0.770742 15.399445 11.345904 2.845533 2.571628 0.173106 4.922374 25.670653 41.195743 -174.666201 81.158043 174.258111 0.000000 0.000000 0.000000 
-5.087657 109.551537 -0.963585 0.000000 0.000000 0.000000 -6.844094 -31.980547 0.772158 -16.421061 11.108854 11.936502 30.554260 10.210769 0.773941 -1.903423 18.740456 -9.713665 -2.156354 0.184364 -1.205166 0.000000 0.000000 0.000000 -6.403097 -30.426976 1.001775 -9.063263 -32.503805 -12.597300 28.490090 6.551149 -5.164644 -16.036775 -17.264191 6.449747 -5.281336 0.244543 -0.024341 0.000000 0.000000 0.000000 -7.280959 -32.132372 0.154090 5.386409 -1.841730 -1.009242 1.238672 -2.216682 0.270983 0.682103 0.507959 -0.010528 0.000000 0.000000 0.000000 1.074680 -1.866306 0.118638 1.824071 5.501884 -0.396667 -0.080846 -18.207768 -2.689528 0.000000 0.000000 0.000000 1.305618 -2.000362 -0.035754 -0.111869 -16.157893 -18.276417 -1.701581 -1.762614 -2.224104 13.318779 6.001355 -36.125960 171.834282 -83.807924 170.904748 0.000000 0.000000 0.000000 0.822034 -1.964625 0.123575 0.767357 15.459964 11.351977 2.790796 2.537893 0.138443 5.462659 24.832017 40.694144 -175.243926 80.297890 174.870629 0.000000 0.000000 0.000000 
-5.575245 109.831429 -0.774738 0.000000 0.000000 0.000000 -6.896521 -33.575519 0.576402 -17.276125 11.209852 11.632069 30.819036 9.618336 0.599701 -1.673107 17.061143 -9.058902 -2.436995 0.202465 -1.239356 0.000000 0.000000 0.000000 -6.452260 -31.908827 0.822016 -8.182967 -31.897936 -12.027453 27.767417 6.072864 -5.066629 -15.962256 -16.537971 6.399117 -5.099592 0.210103 0.086929 0.000000 0.000000 0.000000 -7.280253 -33.399096 0.003494 5.389795 -1.513032 -0.986103 1.202853 -2.067241 0.239939 0.677716 0.393340 -0.028173 0.000000 0.000000 0.000000 1.121301 -1.712234 0.079712 1.780837 5.533886 -0.423555 -0.172697 -17.670642 -2.539804 0.000000 0.000000 0.000000 1.276228 -1.843575 -0.071074 -0.113491 -16.140193 -18.231547 -1.632120 -1.720052 -2.297330 12.824722 5.634744 -36.191052 172.190107 -83.977572 171.275203 0.000000 0.000000 0.000000 0.788541 -1.824215 0.090713 0.772501 15.490606 11.370994 2.717404 2.492608 0.082924 5.927747 24.102897 40.288281 -175.692888 79.523660 175.371199 0.000000 0.000000 0.000000 
-5.980387 110.177521 -0.572437 0.000000 0.000000 0.000000 -6.843779 -35.043303 0.450195 -18.131722 11.417580 11.086312 30.578200 8.781287 0.430208 -1.285518 14.696902 -8.454793 -2.691642 0.182285 -1.151156 0.000000 0.000000 0.000000 -6.393253 -33.306140 0.710414 -7.392400 -31.157124 -11.505494 27.036257 5.427253 -5.000843 -15.737741 -15.741754 6.316698 -4.943667 0.185581 0.201101 0.000000 0.000000 0.000000 -7.210872 -34.657107 -0.120575 5.375719 -1.149176 -0.980126 1.177355 -1.914805 0.209565 0.671146 0.279923 -0.014279 0.000000 0.000000 0.000000 1.169044 -1.557107 0.040191 1.730543 5.547390 -0.430827 -0.238173 -17.072691 -2.368019 0.000000 0.000000 0.000000 1.258860 -1.685837 -0.108474 -0.112600 -16.090939 -18.215034 -1.561035 -1.684503 -2.354068 12.433457 5.238193 -36.232641 172.374003 -84.080790 171.489576 0.000000 0.000000 0.000000 0.766513 -1.680409 0.061738 0.786907 15.491622 11.398577 2.648625 2.415603 0.022216 6.283445 23.519242 39.972664 -176.029397 78.914080 175.771039 0.000000 0.000000 0.000000 
